<svg fill="none" height="220" viewBox="0 0 220 220" width="220" xmlns="http://www.w3.org/2000/svg" xmlns:xlink="http://www.w3.org/1999/xlink"><clipPath id="a"><path d="m0 0h220v220h-220z"/></clipPath><g clip-path="url(#a)"><path d="m132.166 57.533c3.423 0 6.198-2.7747 6.198-6.1975 0-3.4227-2.775-6.1974-6.198-6.1974s-6.197 2.7747-6.197 6.1974c0 3.4228 2.774 6.1975 6.197 6.1975z" fill="#20ce55"/><path d="m109.999 157.578c26.277 0 47.579-21.301 47.579-47.578 0-26.2768-21.302-47.5784-47.579-47.5784-26.2765 0-47.5781 21.3016-47.5781 47.5784 0 26.277 21.3016 47.578 47.5781 47.578z" fill="#f9911e"/><path d="m109.999 148.993c21.536 0 38.993-17.458 38.993-38.993 0-21.5351-17.457-38.9928-38.993-38.9928-21.5347 0-38.9924 17.4577-38.9924 38.9928 0 21.535 17.4577 38.993 38.9924 38.993z" fill="#f24125"/><g fill="#333"><path d="m110 220c-60.6544 0-110-49.346-110-110 0-60.6534 49.3456-109.99899292 110-109.99899292 28.96 0 56.317 11.20309292 77.032 31.54619292 1.119 1.0992 1.135 2.8977.036 4.0167-1.099 1.1191-2.896 1.1362-4.016.0364-19.646-19.2933-45.59-29.91877-73.052-29.91877-57.5222 0-104.31947 46.79727-104.31947 104.31847 0 57.522 46.79727 104.32 104.31947 104.32 57.522 0 104.319-46.797 104.319-104.32 0-18.9532-5.157-37.524-14.914-53.7044-.81-1.3434-.378-3.0891.965-3.8991 1.344-.8106 3.089-.3778 3.899.9657 10.291 17.066 15.731 36.6513 15.731 56.6388-.001 60.653-49.346 109.999-110 109.999z"/><path d="m173.826 168.061c-.659 0-1.321-.228-1.858-.694-1.186-1.027-1.314-2.821-.287-4.006 12.842-14.825 19.916-33.776 19.916-53.361 0-44.9926-36.604-81.5968-81.597-81.5968-19.6371 0-38.6254 7.1058-53.4675 20.008-1.1838 1.0287-2.9777.9037-4.007-.2801s-.9038-2.9777.28-4.007c15.876-13.8009 36.1878-21.4014 57.1945-21.4014 48.125 0 87.277 39.1525 87.277 87.2773 0 20.952-7.565 41.223-21.302 57.08-.562.648-1.353.981-2.149.981z"/><path d="m110 197.277c-48.1255 0-87.278-39.153-87.278-87.277 0-15.7873 4.2798-31.2667 12.3762-44.7642.8066-1.3458 2.5511-1.782 3.8963-.9748 1.3451.8066 1.7814 2.5517.9748 3.8963-7.5671 12.6158-11.5667 27.0841-11.5667 41.8427 0 44.993 36.6042 81.597 81.5974 81.597 20.142 0 39.497-7.43 54.502-20.923 1.167-1.048 2.962-.953 4.011.213 1.05 1.167.954 2.963-.213 4.011-16.049 14.432-36.754 22.379-58.3 22.379z"/><path d="m58.9968 147.55c-.9072 0-1.7984-.433-2.3483-1.239-7.3302-10.737-11.2043-23.292-11.2043-36.311 0-35.5959 28.9593-64.5552 64.5558-64.5552 4.852 0 9.692.5436 14.384 1.6155 1.529.3494 2.485 1.8723 2.136 3.4015s-1.872 2.4858-3.401 2.1365c-4.278-.9776-8.692-1.473-13.119-1.473-32.4642 0-58.8753 26.4111-58.8753 58.8747 0 11.871 3.5322 23.32 10.2153 33.108.8845 1.296.551 3.063-.7441 3.948-.4897.334-1.0475.494-1.5991.494z"/><path d="m110 174.555c-18.3964 0-35.981-7.91-48.2453-21.704-1.0418-1.172-.9367-2.967.2358-4.01 1.1724-1.042 2.9675-.937 4.0099.236 11.1872 12.582 27.2245 19.798 43.9996 19.798 15.198 0 29.634-5.797 40.649-16.324 10.978-10.493 17.426-24.582 18.156-39.672.076-1.566 1.401-2.778 2.975-2.699 1.566.076 2.775 1.408 2.699 2.974-.8 16.551-7.87 32.001-19.906 43.504-12.076 11.541-27.906 17.897-44.573 17.897z"/><path d="m171.437 106.992c-1.449 0-2.686-1.103-2.825-2.574-1.857-19.6646-13.419-36.9987-30.93-46.3681-1.383-.7402-1.904-2.4614-1.164-3.8446.741-1.3832 2.461-1.9041 3.845-1.1645 19.193 10.2709 31.868 29.278 33.905 50.8432.147 1.562-.999 2.947-2.561 3.095-.091.008-.181.013-.27.013z"/><path d="m110 151.833c-23.067 0-41.8337-18.767-41.8337-41.834 0-23.0665 18.7661-41.8327 41.8337-41.8327 23.067 0 41.833 18.7662 41.833 41.8337 0 23.067-18.767 41.833-41.833 41.833zm0-77.9856c-19.9353 0-36.1532 16.2179-36.1532 36.1526 0 19.935 16.2179 36.153 36.1532 36.153 19.935 0 36.153-16.218 36.153-36.153 0-19.9347-16.219-36.1526-36.153-36.1526z"/><path d="m135.891 152.765c-.93 0-1.841-.456-2.385-1.293-.854-1.315-.481-3.074.835-3.929 12.771-8.298 20.397-22.333 20.397-37.544 0-5.363-.939-10.6073-2.79-15.5869-.546-1.4701.202-3.1055 1.672-3.652 1.47-.5453 3.105.2017 3.652 1.6723 2.087 5.6147 3.146 11.5256 3.146 17.5666 0 17.14-8.592 32.956-22.982 42.307-.478.311-1.015.459-1.545.459z"/><path d="m110 160.417c-18.3248 0-35.2323-9.965-44.1251-26.007-.7607-1.373-.2647-3.101 1.1071-3.861 1.3713-.76 3.1004-.265 3.8611 1.107 7.8919 14.237 22.8959 23.081 39.1569 23.081 5.413 0 10.702-.955 15.721-2.84 1.468-.551 3.106.193 3.657 1.661.551 1.469-.192 3.106-1.661 3.657-5.659 2.125-11.62 3.202-17.717 3.202z"/><path d="m63.9695 124.932c-1.2605 0-2.4114-.845-2.7454-2.121-1.0901-4.162-1.6428-8.472-1.6428-12.811 0-20.8169 13.0726-39.766 32.529-47.1512 1.4673-.5573 3.1067.1806 3.6633 1.6473.5567 1.4667-.1806 3.1067-1.6473 3.6634-17.2648 6.5542-28.8645 23.3686-28.8645 41.8415 0 3.853.4903 7.68 1.4571 11.371.3976 1.517-.5107 3.07-2.028 3.467-.2408.063-.4834.093-.7214.093z"/><path d="m104.34 65.5953c-1.42 0-2.646-1.0622-2.817-2.5068-.185-1.5576.929-2.9703 2.486-3.1544 1.976-.234 3.991-.3527 5.991-.3527 1.568 0 2.84 1.2718 2.84 2.8402s-1.272 2.8403-2.84 2.8403c-1.778 0-3.568.1056-5.323.313-.113.0136-.226.0204-.337.0204z"/><path d="m148.227 84.5064c-.868 0-1.726-.3965-2.283-1.1475-6.218-8.3753-15.19-14.3461-25.26-16.8138-1.523-.3732-2.456-1.9109-2.083-3.4344s1.912-2.4546 3.434-2.0831c11.354 2.7812 21.464 9.5092 28.47 18.9452.935 1.2593.672 3.0385-.588 3.9735-.508.3772-1.102.5601-1.69.5601z"/></g><path d="m186.185 48.6674c7.703 0 13.947-6.2445 13.947-13.9474 0-7.703-6.244-13.9474-13.947-13.9474s-13.947 6.2444-13.947 13.9474c0 7.7029 6.244 13.9474 13.947 13.9474z" fill="#f24125"/><path d="m41.1627 70.5738c5.2041 0 9.4229-4.2188 9.4229-9.4229s-4.2188-9.4229-9.4229-9.4229-9.4228 4.2188-9.4228 9.4229 4.2187 9.4229 9.4228 9.4229z" fill="#f9911e"/><path d="m179.942 206.01c8.223 0 14.889-6.666 14.889-14.889 0-8.222-6.666-14.888-14.889-14.888s-14.889 6.666-14.889 14.888c0 8.223 6.666 14.889 14.889 14.889z" fill="#53aef9"/><path d="m194.831 191.123c0 8.22-6.669 14.889-14.889 14.889-6.544 0-12.1-4.221-14.088-10.083 1.506.522 3.125.801 4.806.801 8.225 0 14.889-6.663 14.889-14.889 0-1.681-.279-3.3-.801-4.806 5.862 1.994 10.083 7.544 10.083 14.088z" fill="#000" opacity=".25"/><path d="m187.821 20.7726c6.797 0 12.311 5.5146 12.311 12.3114 0 5.4113-3.49 10.0051-8.337 11.649.432-1.2446.662-2.5835.662-3.974 0-6.8019-5.51-12.3115-12.312-12.3115-1.39 0-2.728.2301-3.974.6624 1.649-4.8472 6.239-8.3373 11.65-8.3373z" fill="#000" opacity=".25"/><path d="m31.7399 60.9265c0-5.0784 4.1201-9.1985 9.1984-9.1985 4.0429 0 7.4751 2.6074 8.7032 6.2293-.9299-.3227-1.9303-.4948-2.9692-.4948-5.0818 0-9.1985 4.1167-9.1985 9.1985 0 1.039.1721 2.0387.4948 2.9692-3.6214-1.2321-6.2287-4.6609-6.2287-8.7037z" fill="#000" opacity=".25"/><path d="m41.1628 73.414c-6.7621 0-12.2631-5.501-12.2631-12.2625 0-6.7621 5.501-12.2632 12.2631-12.2632s12.2631 5.5011 12.2631 12.2632c0 6.7615-5.501 12.2625-12.2631 12.2625zm0-18.8451c-3.6299 0-6.5826 2.9527-6.5826 6.5826 0 3.6292 2.9527 6.582 6.5826 6.582 3.6298 0 6.5826-2.9528 6.5826-6.582 0-3.6299-2.9528-6.5826-6.5826-6.5826z" fill="#333"/><path d="m132.166 60.3732c-4.984 0-9.038-4.0541-9.038-9.0377 0-4.9835 4.054-9.0383 9.038-9.0383s9.038 4.0548 9.038 9.0383c0 4.9836-4.054 9.0377-9.038 9.0377zm0-12.3954c-1.851 0-3.358 1.5059-3.358 3.3577 0 1.8513 1.506 3.3572 3.358 3.3572s3.358-1.5059 3.358-3.3572c-.001-1.8518-1.507-3.3577-3.358-3.3577z" fill="#333"/><path d="m179.942 208.85c-9.776 0-17.729-7.953-17.729-17.729s7.953-17.729 17.729-17.729 17.729 7.953 17.729 17.729-7.953 17.729-17.729 17.729zm0-29.777c-6.643 0-12.048 5.405-12.048 12.048 0 6.644 5.405 12.049 12.048 12.049s12.048-5.405 12.048-12.049c0-6.643-5.405-12.048-12.048-12.048z" fill="#333"/><path d="m186.185 51.5076c-9.257 0-16.788-7.5306-16.788-16.7876s7.531-16.7877 16.788-16.7877c9.256 0 16.788 7.5307 16.788 16.7877s-7.531 16.7876-16.788 16.7876zm0-27.8948c-6.125 0-11.107 4.9824-11.107 11.1072 0 6.1241 4.982 11.1071 11.107 11.1071 6.124 0 11.107-4.9824 11.107-11.1071 0-6.1248-4.982-11.1072-11.107-11.1072z" fill="#333"/></g></svg>